<?xml version="1.0" standalone="no"?>
<!DOCTYPE svg PUBLIC "-//W3C//DTD SVG 20010904//EN"
 "http://www.w3.org/TR/2001/REC-SVG-20010904/DTD/svg10.dtd">
<svg version="1.0" xmlns="http://www.w3.org/2000/svg"
 width="700.000000pt" height="700.000000pt" viewBox="0 0 700.000000 700.000000"
 preserveAspectRatio="xMidYMid meet">
<metadata>
Created by potrace 1.11, written by Peter Selinger 2001-2013
</metadata>
<g transform="translate(0.000000,700.000000) scale(0.100000,-0.100000)"
fill="#000000" stroke="none">
<path d="M1980 6609 c-219 -31 -394 -165 -500 -384 -49 -99 -95 -250 -106
-349 -8 -63 -7 -62 -53 -86 -52 -26 -116 -101 -135 -157 -9 -26 -16 -74 -16
-108 0 -110 77 -225 176 -264 30 -12 32 -16 38 -79 4 -37 16 -116 27 -177 12
-60 23 -121 26 -135 2 -14 15 -66 27 -117 l23 -91 -80 -22 c-87 -24 -312 -102
-416 -145 -55 -22 -65 -24 -80 -12 -67 57 -216 71 -302 29 -97 -47 -158 -139
-168 -249 -6 -61 -8 -64 -56 -104 -205 -167 -341 -361 -372 -533 -9 -51 -10
-187 -1 -241 45 -276 318 -561 736 -769 161 -80 327 -148 522 -211 217 -71
222 -73 215 -85 -7 -11 -39 -141 -55 -220 -5 -30 -13 -66 -15 -80 -35 -167
-59 -414 -59 -600 0 -269 34 -457 112 -624 49 -103 85 -156 151 -224 282 -282
742 -244 1276 105 86 56 300 215 315 233 3 4 41 37 85 75 44 37 108 95 142
129 l63 60 42 -40 c77 -74 112 -106 168 -153 30 -25 66 -56 80 -69 14 -13 55
-46 92 -75 l68 -52 -1 -56 c-3 -122 65 -229 176 -280 84 -38 169 -35 260 10
63 31 65 31 102 16 180 -77 386 -106 548 -80 142 23 241 74 344 177 127 126
202 292 246 543 21 117 26 397 10 545 -7 63 -16 142 -20 175 -9 82 -61 345
-84 428 -22 80 -27 73 93 107 231 64 551 197 745 308 424 244 639 533 627 842
-4 106 -19 164 -63 260 -103 220 -341 433 -670 599 -190 96 -449 198 -656 256
l-95 27 9 32 c11 36 55 235 64 286 3 19 10 60 15 90 14 75 18 110 19 145 1 24
8 33 34 44 54 24 112 78 143 133 26 47 29 63 29 138 0 70 -4 93 -23 130 -30
58 -83 113 -132 136 -35 17 -38 23 -43 69 -25 214 -115 426 -233 550 -122 127
-275 194 -458 199 -184 6 -356 -38 -581 -149 -170 -84 -417 -247 -550 -364
-17 -14 -62 -53 -100 -86 -39 -33 -98 -87 -133 -120 -35 -33 -67 -60 -72 -60
-5 0 -35 25 -67 56 -133 126 -419 357 -528 426 -241 153 -476 258 -617 278
-24 3 -50 8 -59 11 -30 9 -194 11 -249 3z m259 -234 c284 -55 668 -294 1050
-654 l54 -51 -19 -22 c-10 -13 -40 -45 -65 -73 -26 -27 -86 -97 -135 -155 -49
-58 -91 -107 -94 -110 -11 -10 -207 -267 -265 -347 -32 -46 -61 -84 -64 -84
-11 -3 -46 -6 -122 -13 -42 -4 -87 -9 -100 -11 -13 -2 -46 -6 -74 -10 -27 -3
-57 -8 -65 -10 -8 -2 -41 -7 -73 -10 -64 -6 -395 -66 -492 -90 -33 -8 -63 -14
-67 -15 -6 0 -52 183 -64 255 -3 22 -7 42 -9 45 -2 3 -6 26 -10 50 -3 25 -8
52 -10 60 -2 8 -7 43 -10 76 l-6 62 35 21 c45 28 91 91 112 154 41 124 -20
286 -129 343 -23 13 -27 20 -23 42 3 15 8 46 11 68 8 65 44 173 83 247 80 154
194 232 358 246 49 4 94 6 99 5 6 -2 48 -10 94 -19z m2879 -31 c47 -24 88 -55
119 -88 77 -85 146 -254 166 -408 6 -45 5 -49 -21 -62 -38 -20 -86 -73 -112
-124 -27 -51 -37 -151 -21 -208 15 -57 67 -131 113 -162 l40 -26 -7 -60 c-12
-108 -86 -471 -99 -484 -2 -1 -52 9 -112 22 -60 14 -125 27 -144 30 -52 9 -93
16 -110 21 -8 2 -37 7 -65 11 -27 3 -53 8 -56 10 -3 1 -37 6 -75 9 -38 4 -71
9 -74 10 -3 2 -32 7 -65 10 -32 4 -66 9 -74 10 -9 2 -56 7 -106 11 -49 4 -93
9 -97 10 -5 1 -12 2 -16 3 -5 0 -39 43 -75 94 -99 138 -216 288 -319 410 -51
60 -101 119 -111 131 -10 11 -37 41 -60 66 -23 25 -51 55 -62 68 l-19 23 54
50 c338 311 602 493 865 597 116 45 174 61 259 69 34 3 62 6 63 7 2 2 35 -1
75 -6 52 -6 94 -19 146 -44z m-1562 -896 c99 -104 375 -439 429 -521 l18 -29
-94 7 c-117 9 -656 9 -803 0 l-109 -6 18 28 c35 53 209 269 324 401 64 74 123
142 131 153 8 10 20 18 25 19 6 0 33 -24 61 -52z m444 -771 c19 -3 65 -5 103
-6 l67 -1 81 -122 c174 -263 334 -538 494 -851 l102 -198 -112 -217 c-61 -119
-124 -236 -138 -259 -15 -24 -27 -45 -27 -48 0 -11 -199 -339 -296 -487 l-103
-158 -53 0 c-29 0 -93 -4 -143 -8 -123 -10 -830 -8 -990 2 -71 5 -136 9 -144
9 -39 1 -424 641 -607 1010 l-79 157 93 183 c123 242 163 316 305 552 152 253
271 432 289 432 62 1 274 15 276 18 5 5 839 -3 882 -8z m-1476 -65 c-10 -15
-42 -65 -71 -112 -29 -47 -57 -90 -63 -97 -5 -7 -10 -14 -10 -17 0 -3 -24 -44
-53 -93 -30 -48 -65 -108 -79 -133 -93 -169 -160 -293 -184 -342 l-28 -58 -59
143 c-86 207 -207 551 -207 588 0 14 64 34 170 53 14 2 72 14 130 25 105 20
130 24 225 37 28 3 58 8 69 10 10 2 44 6 75 10 31 3 57 7 58 8 1 1 12 2 23 3
21 2 21 1 4 -25z m2181 -8 c148 -21 405 -68 501 -91 l31 -8 -22 -76 c-44 -147
-226 -631 -246 -653 -4 -5 -24 25 -44 65 -59 117 -192 353 -277 493 -43 71
-78 131 -78 133 0 2 -22 36 -48 76 -27 40 -51 77 -55 83 -8 14 -7 13 238 -22z
m-3136 -231 c49 -171 186 -530 291 -766 l49 -108 -41 -87 c-72 -157 -203 -493
-263 -677 -32 -99 -59 -181 -60 -182 -1 -2 -64 17 -141 41 -583 184 -978 429
-1123 699 -118 220 -38 462 222 671 l49 39 46 -22 c131 -60 261 -36 360 66 35
35 71 122 73 176 3 55 -5 49 169 114 80 30 322 110 341 112 3 1 16 -34 28 -76z
m3996 43 c547 -166 957 -406 1123 -656 93 -140 110 -290 49 -433 -113 -265
-525 -534 -1107 -723 -74 -25 -144 -46 -155 -48 -17 -3 -24 11 -53 103 -18 58
-37 115 -42 126 -5 11 -25 67 -46 125 -46 131 -149 387 -203 503 l-40 87 42
92 c24 51 76 176 116 278 40 102 76 192 80 200 5 10 126 375 126 380 0 0 50
-15 110 -34z m-506 -1406 c57 -141 167 -456 173 -494 2 -14 -5 -21 -27 -28
-36 -10 -215 -46 -265 -54 -19 -3 -51 -9 -70 -14 -19 -5 -57 -11 -85 -14 -27
-4 -61 -8 -75 -11 -14 -2 -43 -7 -65 -10 -82 -10 -121 -16 -147 -21 -36 -7
-36 6 1 59 33 49 214 347 259 427 70 126 105 190 154 287 l52 101 19 -41 c10
-23 44 -107 76 -187z m-2983 148 c88 -174 324 -584 414 -718 20 -30 39 -60 43
-66 7 -11 -33 -12 -95 0 -18 3 -55 8 -83 11 -27 4 -57 8 -65 10 -8 2 -37 7
-65 11 -50 6 -299 52 -406 76 l-57 12 18 65 c41 146 240 671 255 671 3 0 21
-32 41 -72z m-251 -905 c78 -17 72 -15 250 -48 72 -13 153 -26 180 -29 52 -6
116 -16 149 -22 11 -2 67 -8 125 -14 90 -9 173 -18 177 -20 1 0 14 -19 30 -42
16 -24 31 -45 34 -48 3 -3 17 -21 30 -40 82 -119 350 -448 469 -575 32 -33 61
-66 65 -74 19 -31 -392 -373 -604 -503 -371 -227 -670 -288 -865 -175 -126 72
-232 253 -259 440 -4 27 -10 59 -12 70 -9 44 -14 135 -14 262 0 126 2 168 15
285 12 101 15 125 30 205 8 44 17 95 20 112 6 38 31 150 46 206 9 36 12 38 37
32 15 -4 59 -14 97 -22z m3484 -10 c13 -48 31 -130 37 -163 2 -14 9 -45 14
-70 13 -62 29 -156 35 -210 3 -25 7 -66 11 -91 13 -109 20 -389 10 -459 -2
-14 -6 -50 -10 -80 -41 -302 -182 -505 -383 -550 -61 -14 -176 -14 -239 0 -27
7 -60 14 -74 16 -14 3 -58 17 -97 32 -79 29 -75 23 -73 107 0 3 -7 22 -15 43
-72 171 -246 242 -413 166 l-33 -16 -76 59 c-70 53 -193 160 -302 261 -50 47
-52 38 35 132 28 30 91 102 140 160 49 58 91 107 94 110 11 10 207 267 265
348 32 45 61 82 64 83 3 0 13 2 21 3 8 2 49 6 90 10 41 4 86 8 100 10 76 10
138 18 160 21 14 3 48 7 75 10 66 8 405 71 475 89 79 20 78 20 89 -21z m-1809
-155 c173 0 357 3 409 7 l94 6 -18 -27 c-58 -89 -330 -419 -433 -526 l-55 -57
-41 47 c-23 25 -48 53 -56 62 -72 74 -340 404 -385 473 l-18 29 94 -7 c52 -4
236 -7 409 -7z"/>
<path d="M3380 4159 c-19 -5 -45 -10 -56 -13 -99 -20 -229 -101 -317 -196
-109 -118 -167 -260 -173 -425 -7 -208 65 -380 220 -522 127 -117 286 -174
466 -169 496 15 797 527 572 976 -44 90 -167 220 -252 268 -102 57 -203 85
-320 87 -58 2 -121 -1 -140 -6z"/>
</g>
</svg>
