<?xml version="1.0" standalone="no"?>
<!DOCTYPE svg PUBLIC "-//W3C//DTD SVG 20010904//EN"
 "http://www.w3.org/TR/2001/REC-SVG-20010904/DTD/svg10.dtd">
<svg version="1.0" xmlns="http://www.w3.org/2000/svg"
 width="700.000000pt" height="700.000000pt" viewBox="0 0 700.000000 700.000000"
 preserveAspectRatio="xMidYMid meet">
<metadata>
Created by potrace 1.11, written by Peter Selinger 2001-2013
</metadata>
<g transform="translate(0.000000,700.000000) scale(0.100000,-0.100000)"
fill="#000000" stroke="none">
<path d="M3400 6189 c-126 -8 -221 -19 -235 -27 -5 -4 -21 -8 -35 -10 -14 -2
-47 -10 -75 -18 -27 -8 -52 -15 -55 -15 -3 -1 -15 -5 -28 -10 -13 -5 -29 -9
-37 -9 -8 0 -16 -4 -20 -9 -3 -5 -18 -12 -35 -16 -16 -3 -65 -26 -110 -50 -44
-24 -80 -41 -80 -39 0 3 -6 0 -12 -6 -7 -6 -49 -34 -92 -63 -106 -70 -102 -67
-153 -112 -125 -112 -225 -223 -290 -321 -7 -11 -24 -36 -38 -57 -14 -21 -25
-42 -25 -47 0 -4 -3 -10 -7 -12 -30 -13 -164 -357 -179 -455 -3 -26 -9 -52
-13 -58 -12 -20 -14 -78 -18 -487 -3 -372 -2 -418 12 -418 8 0 15 -4 15 -10 0
-5 18 -15 40 -21 22 -7 40 -16 40 -21 0 -4 5 -8 11 -8 16 0 137 -81 211 -143
123 -101 216 -222 298 -385 37 -75 84 -202 92 -247 3 -22 28 -36 43 -25 6 4
35 10 65 14 76 10 101 14 128 20 61 14 378 29 642 30 262 2 613 -13 710 -29
19 -3 51 -8 70 -10 38 -5 121 -20 158 -29 19 -4 22 -1 22 24 0 16 7 51 16 77
28 82 103 245 117 251 4 2 7 8 7 14 0 6 11 26 25 44 14 18 25 37 25 42 0 6 3
12 8 14 4 1 30 30 57 63 52 62 119 127 139 134 6 2 19 15 29 28 10 12 25 23
33 23 8 0 14 4 14 8 0 9 131 88 205 123 l50 24 -2 395 c-3 383 -7 484 -23 505
-4 6 -6 22 -5 38 1 15 -1 27 -5 27 -4 0 -10 23 -14 50 -4 28 -12 50 -18 50 -6
0 -9 3 -5 6 3 3 -3 28 -13 55 -11 27 -17 49 -14 49 4 0 1 7 -6 15 -6 8 -9 19
-5 25 3 5 1 10 -4 10 -6 0 -11 7 -11 15 0 8 -5 15 -11 15 -5 0 -8 4 -4 9 3 5
1 12 -5 16 -6 4 -8 11 -5 16 4 5 3 9 -2 9 -4 0 -19 25 -32 55 -14 30 -28 55
-33 55 -4 0 -7 3 -6 8 4 10 -103 172 -114 172 -4 0 -8 5 -8 11 0 21 -136 164
-225 237 -38 31 -77 65 -86 74 -9 10 -21 18 -26 18 -6 0 -21 9 -34 20 -38 31
-41 33 -102 65 -31 17 -57 33 -57 38 0 4 -7 7 -15 7 -8 0 -30 9 -49 19 -19 11
-37 17 -40 14 -3 -4 -6 -2 -6 4 0 6 -16 14 -35 17 -19 4 -35 11 -35 16 0 6 -3
9 -7 9 -16 -3 -73 14 -73 21 0 4 -13 7 -29 8 -17 0 -39 5 -50 11 -11 6 -33 11
-49 11 -16 0 -32 3 -36 8 -4 4 -17 7 -29 8 -12 1 -33 4 -47 8 -45 12 -263 21
-370 15z"/>
<path d="M1409 3726 c-2 -2 -33 -7 -69 -10 -36 -4 -81 -12 -100 -19 -106 -38
-209 -116 -266 -199 -16 -24 -31 -45 -34 -48 -12 -10 -50 -109 -50 -129 0 -11
-4 -22 -8 -25 -9 -5 -10 -236 0 -251 3 -5 9 -29 13 -52 4 -24 11 -43 15 -43 5
0 11 -13 15 -29 3 -16 13 -32 21 -35 8 -3 14 -10 14 -16 0 -14 15 -32 77 -94
64 -63 79 -76 93 -76 6 0 13 -7 17 -16 3 -8 12 -13 19 -10 8 3 14 1 14 -4 0
-6 5 -10 10 -10 21 0 77 -44 88 -69 6 -14 16 -46 22 -71 7 -25 15 -52 18 -60
7 -20 8 -23 27 -105 48 -206 57 -248 70 -335 8 -52 22 -120 31 -150 8 -30 16
-61 16 -67 1 -7 5 -13 9 -13 4 0 10 -14 14 -31 11 -50 87 -160 156 -226 23
-21 53 -50 69 -65 15 -15 30 -24 34 -21 3 4 6 1 6 -5 0 -11 128 -77 143 -74 4
1 7 -2 7 -8 0 -5 11 -10 25 -10 14 0 25 -4 25 -9 0 -5 23 -11 50 -15 28 -4 50
-9 50 -12 0 -3 -18 -27 -40 -53 -22 -26 -43 -61 -46 -79 -4 -18 -10 -32 -14
-32 -3 0 -8 -24 -9 -53 -2 -58 19 -135 51 -182 26 -39 88 -84 127 -91 17 -4
31 -10 31 -13 0 -9 119 -6 145 3 11 5 32 12 47 18 38 14 100 76 123 123 24 51
32 155 14 209 -7 22 -16 43 -19 46 -3 3 -16 22 -30 42 -14 20 -34 41 -45 47
-13 6 366 10 1113 10 l1134 1 -30 -24 c-16 -14 -39 -47 -52 -73 -13 -26 -27
-56 -32 -66 -10 -21 -8 -136 3 -142 4 -3 10 -16 13 -31 8 -29 47 -94 58 -94 4
0 19 -11 34 -25 14 -13 42 -27 60 -31 19 -3 34 -9 34 -13 0 -23 194 8 212 34
4 5 8 6 8 2 0 -12 94 89 98 106 1 4 2 8 3 10 0 1 3 11 7 22 3 11 6 54 6 95 1
85 -21 143 -75 198 -36 37 -35 42 13 47 18 2 34 4 36 5 1 2 6 3 11 4 5 0 13 4
17 9 4 4 16 7 26 7 10 0 18 4 18 10 0 5 7 7 15 4 8 -4 15 -1 15 5 0 5 18 15
40 21 22 6 40 15 40 20 0 6 7 10 15 10 7 0 18 8 24 18 5 9 13 16 18 14 12 -3
184 168 178 178 -3 4 2 10 10 14 8 3 15 12 15 19 0 8 9 24 20 37 11 13 20 30
20 39 0 9 7 25 15 35 8 11 15 28 15 38 0 10 4 18 9 18 6 0 8 9 6 20 -2 11 0
20 4 20 5 0 8 10 7 23 -1 12 1 24 5 27 3 3 9 37 13 75 3 39 8 81 11 95 9 51
26 125 32 140 8 20 12 37 19 83 3 20 10 37 14 37 4 0 8 10 8 23 0 12 2 29 4
37 3 8 8 33 13 55 4 22 10 45 14 50 3 6 6 16 8 24 5 38 30 75 69 101 23 17 48
30 54 30 6 0 16 5 23 10 47 40 61 50 71 50 15 0 46 36 39 44 -4 3 -1 6 6 6 16
0 43 28 60 62 8 15 23 37 33 48 10 11 16 20 13 20 -3 0 1 10 9 22 9 12 16 30
16 40 0 10 5 18 10 18 6 0 8 11 6 25 -3 13 -1 27 2 29 8 5 7 240 0 266 -3 8
-10 34 -16 57 -13 42 -79 149 -117 187 -59 59 -177 136 -209 136 -9 0 -16 4
-16 8 0 5 -6 9 -12 10 -7 0 -42 4 -78 8 -83 9 -89 9 -190 1 -101 -8 -117 -11
-126 -20 -4 -4 -16 -7 -26 -7 -11 0 -44 -11 -74 -25 -30 -14 -61 -25 -69 -25
-8 0 -15 -4 -15 -9 0 -5 -16 -15 -35 -22 -19 -7 -35 -16 -35 -20 0 -4 -22 -21
-49 -38 -27 -18 -76 -60 -108 -95 -89 -96 -103 -117 -160 -236 -41 -85 -39
-78 -53 -145 -6 -27 -14 -57 -18 -65 -5 -8 -9 -78 -11 -155 -1 -77 -5 -143 -9
-147 -4 -4 -54 6 -112 23 -58 16 -115 29 -127 29 -13 0 -23 4 -23 8 0 4 -10 9
-22 10 -19 1 -149 20 -258 37 -67 10 -301 25 -432 27 -82 2 -148 6 -148 9 0 3
-28 4 -62 2 -35 -1 -126 -5 -203 -7 -77 -3 -207 -10 -290 -17 -82 -6 -160 -12
-172 -12 -13 -1 -23 -4 -23 -7 0 -3 -15 -7 -32 -8 -101 -7 -212 -29 -398 -81
-41 -11 -77 -18 -81 -13 -4 4 -10 75 -13 157 -6 176 -7 195 -18 195 -4 0 -8
11 -8 24 0 14 -5 37 -12 53 -6 15 -12 30 -13 33 -7 26 -90 174 -110 196 -14
15 -25 31 -25 35 0 12 -86 95 -150 144 -55 43 -186 115 -208 115 -7 0 -12 5
-12 10 0 6 -3 9 -7 8 -8 -1 -58 10 -83 19 -22 9 -49 12 -115 17 -33 3 -74 7
-91 10 -17 4 -32 4 -35 2z"/>
</g>
</svg>
