<?xml version="1.0" encoding="UTF-8" standalone="no"?>
<svg
   xmlns:dc="http://purl.org/dc/elements/1.1/"
   xmlns:cc="http://creativecommons.org/ns#"
   xmlns:rdf="http://www.w3.org/1999/02/22-rdf-syntax-ns#"
   xmlns:svg="http://www.w3.org/2000/svg"
   xmlns="http://www.w3.org/2000/svg"
   xmlns:sodipodi="http://sodipodi.sourceforge.net/DTD/sodipodi-0.dtd"
   xmlns:inkscape="http://www.inkscape.org/namespaces/inkscape"
   width="92.425911"
   height="84.358925"
   version="1.1"
   id="svg2"
   inkscape:version="0.91 r13725"
   sodipodi:docname="nbc.svg">
  <metadata
     id="metadata34">
    <rdf:RDF>
      <cc:Work
         rdf:about="">
        <dc:format>image/svg+xml</dc:format>
        <dc:type
           rdf:resource="http://purl.org/dc/dcmitype/StillImage" />
        <dc:title></dc:title>
      </cc:Work>
    </rdf:RDF>
  </metadata>
  <sodipodi:namedview
     pagecolor="#ffffff"
     bordercolor="#666666"
     borderopacity="1"
     objecttolerance="10"
     gridtolerance="10"
     guidetolerance="10"
     inkscape:pageopacity="0"
     inkscape:pageshadow="2"
     inkscape:window-width="1366"
     inkscape:window-height="740"
     id="namedview32"
     showgrid="false"
     inkscape:zoom="3.3469721"
     inkscape:cx="70.31107"
     inkscape:cy="50.076627"
     inkscape:window-x="0"
     inkscape:window-y="0"
     inkscape:window-maximized="1"
     inkscape:current-layer="g16"
     fit-margin-top="0"
     fit-margin-left="0"
     fit-margin-right="0"
     fit-margin-bottom="0" />
  <desc
     id="desc4">Logo of National Bank of Canada</desc>
  <defs
     id="defs6">
    <linearGradient
       spreadMethod="pad"
       id="svg_1"
       y2="3.9513855"
       x2="87.485558"
       y1="3.9513855"
       x1="2.5870054"
       gradientTransform="scale(1.0545127,0.94830531)"
       gradientUnits="userSpaceOnUse">
      <stop
         stop-color="#ed1c24"
         offset="0"
         id="stop66" />
      <stop
         stop-color="#ed1c24"
         offset="0.33147"
         id="stop68" />
      <stop
         stop-color="#aa161e"
         offset="0.39327"
         id="stop70" />
      <stop
         stop-color="#aa161e"
         offset="0.39327"
         id="stop72" />
      <stop
         stop-color="#aa161e"
         stop-opacity="0.99219"
         offset="0.57294"
         id="stop76" />
      <stop
         stop-color="#ed1c24"
         offset="0.63544"
         id="stop74" />
      <stop
         stop-color="#ed1c24"
         offset="1"
         id="stop78" />
    </linearGradient>
    <clipPath
       clipPathUnits="userSpaceOnUse"
       id="clipPath3374">
      <rect
         style="fill:#0000ff;fill-rule:evenodd;stroke:#000000;stroke-width:1px;stroke-linecap:butt;stroke-linejoin:miter;stroke-opacity:1"
         id="rect3376"
         width="101.40845"
         height="84.507042"
         x="-0.84507042"
         y="0.29296079" />
    </clipPath>
    <clipPath
       clipPathUnits="userSpaceOnUse"
       id="clipPath3378">
      <rect
         style="fill:#0000ff;fill-rule:evenodd;stroke:#000000;stroke-width:1px;stroke-linecap:butt;stroke-linejoin:miter;stroke-opacity:1"
         id="rect3380"
         width="101.40845"
         height="84.507042"
         x="-0.84507042"
         y="0.29296079" />
    </clipPath>
    <clipPath
       clipPathUnits="userSpaceOnUse"
       id="clipPath3382">
      <rect
         style="fill:#0000ff;fill-rule:evenodd;stroke:#000000;stroke-width:1px;stroke-linecap:butt;stroke-linejoin:miter;stroke-opacity:1"
         id="rect3384"
         width="101.40845"
         height="84.507042"
         x="-0.84507042"
         y="0.29296079" />
    </clipPath>
    <clipPath
       clipPathUnits="userSpaceOnUse"
       id="clipPath3386">
      <rect
         style="fill:#0000ff;fill-rule:evenodd;stroke:#000000;stroke-width:1px;stroke-linecap:butt;stroke-linejoin:miter;stroke-opacity:1"
         id="rect3388"
         width="101.40845"
         height="84.507042"
         x="-0.84507042"
         y="0.29296079" />
    </clipPath>
    <clipPath
       clipPathUnits="userSpaceOnUse"
       id="clipPath3390">
      <rect
         style="fill:#0000ff;fill-rule:evenodd;stroke:#000000;stroke-width:1px;stroke-linecap:butt;stroke-linejoin:miter;stroke-opacity:1"
         id="rect3392"
         width="101.40845"
         height="84.507042"
         x="-0.84507042"
         y="0.29296079" />
    </clipPath>
    <clipPath
       clipPathUnits="userSpaceOnUse"
       id="clipPath3394">
      <rect
         style="fill:#0000ff;fill-rule:evenodd;stroke:#000000;stroke-width:1px;stroke-linecap:butt;stroke-linejoin:miter;stroke-opacity:1"
         id="rect3396"
         width="101.40845"
         height="84.507042"
         x="-0.84507042"
         y="0.29296079" />
    </clipPath>
    <clipPath
       clipPathUnits="userSpaceOnUse"
       id="clipPath3398">
      <rect
         style="fill:#0000ff;fill-rule:evenodd;stroke:#000000;stroke-width:1px;stroke-linecap:butt;stroke-linejoin:miter;stroke-opacity:1"
         id="rect3400"
         width="101.40845"
         height="84.507042"
         x="-0.84507042"
         y="0.29296079" />
    </clipPath>
    <clipPath
       clipPathUnits="userSpaceOnUse"
       id="clipPath3402">
      <rect
         style="fill:#0000ff;fill-rule:evenodd;stroke:#000000;stroke-width:1px;stroke-linecap:butt;stroke-linejoin:miter;stroke-opacity:1"
         id="rect3404"
         width="101.40845"
         height="84.507042"
         x="-0.84507042"
         y="0.29296079" />
    </clipPath>
    <clipPath
       clipPathUnits="userSpaceOnUse"
       id="clipPath3406">
      <rect
         style="fill:#0000ff;fill-rule:evenodd;stroke:#000000;stroke-width:1px;stroke-linecap:butt;stroke-linejoin:miter;stroke-opacity:1"
         id="rect3408"
         width="101.40845"
         height="84.507042"
         x="-0.84507042"
         y="0.29296079" />
    </clipPath>
    <clipPath
       clipPathUnits="userSpaceOnUse"
       id="clipPath3410">
      <rect
         style="fill:#0000ff;fill-rule:evenodd;stroke:#000000;stroke-width:1px;stroke-linecap:butt;stroke-linejoin:miter;stroke-opacity:1"
         id="rect3412"
         width="101.40845"
         height="84.507042"
         x="-0.84507042"
         y="0.29296079" />
    </clipPath>
    <clipPath
       clipPathUnits="userSpaceOnUse"
       id="clipPath3414">
      <rect
         style="fill:#0000ff;fill-rule:evenodd;stroke:#000000;stroke-width:1px;stroke-linecap:butt;stroke-linejoin:miter;stroke-opacity:1"
         id="rect3416"
         width="101.40845"
         height="84.507042"
         x="-0.84507042"
         y="0.29296079" />
    </clipPath>
    <clipPath
       clipPathUnits="userSpaceOnUse"
       id="clipPath3418">
      <rect
         style="fill:#0000ff;fill-rule:evenodd;stroke:#000000;stroke-width:1px;stroke-linecap:butt;stroke-linejoin:miter;stroke-opacity:1"
         id="rect3420"
         width="101.40845"
         height="84.507042"
         x="-0.84507042"
         y="0.29296079" />
    </clipPath>
    <clipPath
       clipPathUnits="userSpaceOnUse"
       id="clipPath3422">
      <rect
         style="fill:#0000ff;fill-rule:evenodd;stroke:#000000;stroke-width:1px;stroke-linecap:butt;stroke-linejoin:miter;stroke-opacity:1"
         id="rect3424"
         width="101.40845"
         height="84.507042"
         x="-0.84507042"
         y="0.29296079" />
    </clipPath>
    <clipPath
       clipPathUnits="userSpaceOnUse"
       id="clipPath3426">
      <rect
         style="fill:#0000ff;fill-rule:evenodd;stroke:#000000;stroke-width:1px;stroke-linecap:butt;stroke-linejoin:miter;stroke-opacity:1"
         id="rect3428"
         width="101.40845"
         height="84.507042"
         x="-0.84507042"
         y="0.29296079" />
    </clipPath>
  </defs>
  <g
     id="g16"
     transform="translate(0.05240536,-0.24596596)">
    <path
       id="path30"
       d="m 131.55658,12.94634 0,16.49289 -0.0762,0 -10.8891,-19.10525 -6.03667,2.94612 0,24.48987 5.35098,0 0,-19.56256 0.0751,0 11.19498,19.56256 5.73193,0 0,-27.4338 -5.35098,2.61015"
       clip-path="url(#clipPath3426)"
       inkscape:connector-curvature="0"
       style="fill:#17314b;fill-rule:nonzero" />
    <path
       id="path32"
       d="m 149.10817,27.37735 3.51768,-10.8588 0.074,0 3.40334,10.8588 -6.99498,0 z m 6.91302,-17.04567 -0.008,0 -7.98666,3.89868 -8.3931,23.53963 6.03801,0 1.90828,-5.65695 10.12596,0 1.75946,5.65695 6.22731,0 -9.67114,-27.43831"
       clip-path="url(#clipPath3422)"
       inkscape:connector-curvature="0"
       style="fill:#17314b;fill-rule:nonzero" />
    <path
       id="path34"
       d="m 261.20477,27.37735 3.52115,-10.8588 0.0809,0 3.39407,10.8588 -6.99609,0 z m 6.92688,-17.04567 -0.0115,0 -7.98898,3.89868 -8.39311,23.53963 6.03795,0 1.90485,-5.65695 10.12482,0 1.76633,5.65695 6.22272,0 -9.66293,-27.43831"
       clip-path="url(#clipPath3418)"
       inkscape:connector-curvature="0"
       style="fill:#17314b;fill-rule:nonzero" />
    <path
       id="path36"
       d="m 184.60846,10.33398 -19.50261,0 -2.79036,4.82943 0,0.02517 8.29025,0 0,22.5814 5.73431,0 0,-22.5814 5.47226,0 2.79613,-4.8546"
       clip-path="url(#clipPath3414)"
       inkscape:connector-curvature="0"
       style="fill:#17314b;fill-rule:nonzero" />
    <path
       id="path38"
       d="m 186.89543,13.1232 0,24.64678 5.73317,0 0,-27.436 -0.0104,0 -5.72279,2.78922"
       clip-path="url(#clipPath3410)"
       inkscape:connector-curvature="0"
       style="fill:#17314b;fill-rule:nonzero" />
    <path
       id="path40"
       d="m 209.58786,33.63234 c -3.09398,0 -7.45789,-1.9094 -7.45789,-9.59121 0,-7.68088 4.36391,-9.58808 7.45789,-9.58808 3.09399,0 7.4464,1.9072 7.4464,9.58808 0,7.68181 -4.3524,9.59121 -7.4464,9.59121 m 0,-24.03169 c -0.254,0 -0.54262,0.00496 -0.84276,0.02655 l -9.48985,4.6297 c -1.68549,2.15287 -2.85158,5.27366 -2.85158,9.78422 0,12.87928 9.54756,14.44589 13.18419,14.44589 3.62512,0 13.17259,-1.56661 13.17259,-14.44589 0,-12.87604 -9.54747,-14.44048 -13.17259,-14.44048"
       clip-path="url(#clipPath3406)"
       inkscape:connector-curvature="0"
       style="fill:#17314b;fill-rule:nonzero" />
    <path
       id="path42"
       d="m 243.54121,12.94634 0,16.49289 -0.0692,0 -10.89836,-19.10525 -6.0264,2.94612 0,24.48987 5.34523,0 0,-19.56256 0.0693,0 11.20996,19.56256 5.72629,0 0,-27.4338 -5.35683,2.61015"
       clip-path="url(#clipPath3402)"
       inkscape:connector-curvature="0"
       style="fill:#17314b;fill-rule:nonzero" />
    <path
       id="path44"
       d="m 299.9837,32.8034 -13.63437,0 0,-22.46722 -5.73776,2.79742 0,24.63638 16.50906,0 2.86307,-4.96658"
       clip-path="url(#clipPath3398)"
       inkscape:connector-curvature="0"
       style="fill:#17314b;fill-rule:nonzero" />
    <path
       id="path46"
       d="m 127.08522,70.06567 -7.03083,0 0,-7.3274 7.29871,0 c 2.06067,0 4.12727,0.91552 4.12727,3.31914 0,2.78889 -1.60365,4.00826 -4.39516,4.00826 m -7.03083,-17.95436 6.57253,0 c 2.5976,0 4.20348,0.68897 4.20348,2.94252 0,2.17723 -1.79529,3.06157 -4.04993,3.06157 l -6.72607,0 0,-6.00409 z m 12.91644,7.91129 c 1.14749,-0.57724 3.36174,-1.68206 3.36174,-5.61863 0,-2.82756 -1.7236,-7.031 -8.44496,-7.031 l -7.55148,0 -5.78164,2.82301 0,24.61434 11.6129,0 c 5.61662,0 7.11166,-0.95567 8.67709,-2.48658 1.4512,-1.41425 2.36903,-3.47742 2.36903,-5.65573 0,-2.70841 -0.88095,-5.3823 -4.24269,-6.64542"
       clip-path="url(#clipPath3394)"
       inkscape:connector-curvature="0"
       style="fill:#17314b;fill-rule:nonzero" />
    <path
       id="path48"
       d="m 183.36853,49.98668 0,16.492 -0.0751,0 -10.8856,-19.10571 -6.03679,2.94968 0,24.48767 5.34871,0 0,-19.56348 0.0762,0 11.19382,19.56348 5.73431,0 0,-27.43469 -5.35559,2.61105"
       clip-path="url(#clipPath3390)"
       inkscape:connector-curvature="0"
       style="fill:#17314b;fill-rule:nonzero" />
    <path
       id="path50"
       d="m 147.39484,64.41104 3.51541,-10.84638 0.0762,0 3.40222,10.84638 -6.99385,0 z m 6.91302,-17.03807 -0.007,0 -7.98901,3.89637 -8.39197,23.54097 6.03566,0 1.90837,-5.65554 10.12819,0 1.75372,5.65554 6.23532,0 -9.6734,-27.43735"
       clip-path="url(#clipPath3386)"
       inkscape:connector-curvature="0"
       style="fill:#17314b;fill-rule:nonzero" />
    <path
       id="path52"
       d="m 217.11511,47.38245 -8.87802,1.56429 -8.99333,9.5831 0,-11.1519 -5.7263,2.79821 0,24.63417 5.7263,0 0,-9.28996 2.67842,-2.7464 8.48543,12.03636 7.36555,0 -11.83342,-16.20286 11.17537,-11.22501"
       clip-path="url(#clipPath3382)"
       inkscape:connector-curvature="0"
       style="fill:#17314b;fill-rule:nonzero" />
    <path
       id="path54"
       d="m 92.25451,10.10309 0,64.47775 -34.64829,9.26691 c -1.58741,0.36715 -2.73265,0.61061 -3.87788,0.19167 -0.87736,-0.37881 -1.59429,-1.31947 -2.21426,-2.19802 L 40.83051,67.15514 C 40.20818,66.26859 39.49824,65.30346 38.62539,64.94996 37.48252,64.5057 36.33266,64.78034 34.736,65.12578 L 0,74.41343 0,9.9208 34.61357,0.63047 C 36.19636,0.27962 37.35321,2e-5 38.49732,0.45499 c 0.87848,0.36125 1.62315,1.34163 2.24311,2.22145 l 10.72393,14.69897 c 0.62696,0.89334 1.31965,1.87107 2.21201,2.21152 1.15685,0.43293 2.29284,0.18357 3.87563,-0.17768 l 34.70252,-9.30614"
       clip-path="url(#clipPath3378)"
       inkscape:connector-curvature="0"
       style="fill:#ed1c24;fill-rule:nonzero" />
    <path
       id="path80"
       d="m 32.99741,4.15244 -30.26938,8.14002 0,61.38497 32.00798,-8.55212 c 1.60252,-0.34544 2.74651,-0.62239 3.8895,-0.17815 0.87973,0.35583 1.58279,1.32095 2.20501,2.20531 l 10.68819,14.68394 c 0.61535,0.88306 1.33464,1.82373 2.20975,2.20034 1.14524,0.41895 2.29509,0.17532 3.87788,-0.19398 l 34.64829,-9.26701 0,-60.5249 -35.69893,9.56948 c -1.60117,0.36126 -2.73727,0.62332 -3.91475,0.19039 -0.90634,-0.35409 -1.64288,-1.30781 -2.29972,-2.18762 L 39.07806,6.19137 C 38.41536,5.31156 37.75965,4.33245 36.87305,3.97477 36.44699,3.812 36.01406,3.74712 35.56152,3.74712 c -0.76078,0 -1.57704,0.18484 -2.56409,0.40534"
       clip-path="url(#clipPath3374)"
       inkscape:connector-curvature="0"
       style="fill:url(#svg_1);fill-rule:nonzero" />
  </g>
</svg>
